<svg width="24" height="24" viewBox="0 0 24 24" fill="none" xmlns="http://www.w3.org/2000/svg">
<path fill-rule="evenodd" clip-rule="evenodd" d="M11.0001 2.10001C9.39847 2.10001 8.1001 3.39838 8.1001 5.00001V5.10001H5.0001H4.0001C3.50304 5.10001 3.1001 5.50295 3.1001 6.00001C3.1001 6.49706 3.50304 6.90001 4.0001 6.90001H5.0001H5.30894L6.13436 19.1715L6.13448 19.1735C6.226 20.6219 7.42747 21.75 8.879 21.75H15.1212C16.5727 21.75 17.7741 20.6219 17.8657 19.1736L17.8658 19.1715L18.6913 6.90001H19.0001H20.0001C20.4972 6.90001 20.9001 6.49706 20.9001 6.00001C20.9001 5.50295 20.4972 5.10001 20.0001 5.10001H19.0001H15.9001V5.00001C15.9001 3.39838 14.6017 2.10001 13.0001 2.10001H11.0001ZM14.1001 5.10001H9.9001V5.00001C9.9001 4.39249 10.3926 3.90001 11.0001 3.90001H13.0001C13.6076 3.90001 14.1001 4.39249 14.1001 5.00001V5.10001ZM10.5993 9.96147C10.578 9.46487 10.1582 9.07955 9.66156 9.10083C9.16496 9.12211 8.77964 9.54194 8.80092 10.0385L9.10092 17.0385C9.12221 17.5351 9.54203 17.9205 10.0386 17.8992C10.5352 17.8779 10.9206 17.4581 10.8993 16.9615L10.5993 9.96147ZM15.1993 10.0385C15.2206 9.54194 14.8352 9.12211 14.3386 9.10083C13.842 9.07955 13.4222 9.46487 13.4009 9.96147L13.1009 16.9615C13.0796 17.4581 13.465 17.8779 13.9616 17.8992C14.4582 17.9205 14.878 17.5351 14.8993 17.0385L15.1993 10.0385Z" fill="#EF006D"/>
</svg>
