<svg width="36" height="39" viewBox="0 0 36 39" fill="none" xmlns="http://www.w3.org/2000/svg">
<path d="M36 19.3681C36 29.6942 27.941 38.0654 18 38.0654C8.06 38.0654 0 29.6942 0 19.3681C0 9.04306 8.06 0.670837 18 0.670837C27.941 0.670837 36 9.04306 36 19.3681Z" fill="url(#paint0_linear)"/>
<path d="M25.485 31.7072C25.44 31.5213 24.317 27.1586 18 27.1586C11.682 27.1586 10.56 31.5213 10.515 31.7072C10.46 31.9326 10.558 32.1664 10.752 32.2827C10.947 32.3959 11.191 32.3648 11.352 32.2027C11.371 32.183 13.306 30.2748 18 30.2748C22.694 30.2748 24.63 32.183 24.648 32.2017C24.744 32.3004 24.872 32.3523 25 32.3523C25.084 32.3523 25.169 32.3305 25.246 32.2858C25.442 32.1695 25.54 31.9337 25.485 31.7072ZM15.707 18.6337C12.452 15.2526 7.22098 15.2131 6.99998 15.2131C6.44798 15.2131 6.00098 15.6775 6.00098 16.2498C5.99998 16.8232 6.44698 17.2885 6.99898 17.2906C7.02798 17.2906 8.92398 17.3135 10.982 18.0562C10.389 18.7209 9.99998 19.7535 9.99998 20.9262C9.99998 22.9351 11.119 24.5618 12.5 24.5618C13.881 24.5618 15 22.9351 15 20.9262C15 20.7454 14.981 20.573 14.963 20.3995C14.976 20.3995 14.988 20.4068 15 20.4068C15.256 20.4068 15.512 20.305 15.707 20.1025C16.098 19.6963 16.098 19.0398 15.707 18.6337ZM29 15.2131C28.779 15.2131 23.549 15.2526 20.293 18.6337C19.902 19.0398 19.902 19.6963 20.293 20.1025C20.488 20.305 20.744 20.4068 21 20.4068C21.013 20.4068 21.024 20.3995 21.036 20.3995C21.02 20.573 21 20.7454 21 20.9262C21 22.9351 22.119 24.5618 23.5 24.5618C24.881 24.5618 26 22.9351 26 20.9262C26 19.7535 25.611 18.7209 25.018 18.0562C27.076 17.3135 28.972 17.2906 29.002 17.2906C29.553 17.2885 30 16.8232 29.999 16.2498C29.998 15.6775 29.552 15.2131 29 15.2131Z" fill="#292F33"/>
<defs>
<linearGradient id="paint0_linear" x1="0" y1="0.670837" x2="37.3675" y2="36.6449" gradientUnits="userSpaceOnUse">
<stop stop-color="#DA2F47"/>
<stop offset="1" stop-color="#BB162D"/>
</linearGradient>
</defs>
</svg>
