<svg width="90" height="90" viewBox="0 0 90 90" fill="none" xmlns="http://www.w3.org/2000/svg">
<mask id="mask0" mask-type="alpha" maskUnits="userSpaceOnUse" x="0" y="0" width="90" height="90">
<circle cx="45" cy="45" r="45" fill="#C4C4C4"/>
</mask>
<g mask="url(#mask0)">
<path d="M90.0013 0H0V89.9645H90.0013V0Z" fill="#DBDBDB"/>
<path d="M61.0504 81.2426C50.6838 77.5676 40.2006 77.6937 29.7498 81.2426V71.4301C40.2697 68.7385 50.6975 68.915 61.0504 71.4301V81.2426Z" fill="url(#paint0_linear)"/>
<path d="M56.6486 63.075C55.8662 63.0707 57.2761 73.0172 58.0001 75.4026C59.6507 80.842 79.8506 85.4478 80.0005 89.0565C80.0394 89.9974 80.0005 89.9982 80.0005 89.9982H11.6479L18.0124 83.8772L22.8552 82.6215L25.4308 81.4046C25.9265 81.1705 26.3962 80.8852 26.8328 80.5538L32.126 76.5366C32.126 76.5366 33.7866 74.461 33.6483 71.322C33.5099 68.183 33.5099 63.0743 33.5099 63.0743H56.6486V63.075Z" fill="url(#paint1_linear)"/>
<path d="M29.1491 47.7534C29.1491 47.7534 25.5267 41.0021 24.8898 39.9531C24.253 38.9034 25.3675 35.3048 24.8898 34.5555C24.4122 33.8055 24.253 22.8604 28.0742 19.5615C31.8955 16.2626 34.1238 15.3635 34.1238 15.3635C35.0698 14.5472 41.365 12.2482 44.0112 12.6647C51.97 13.9175 50.6458 13.5069 52.1148 13.4147C55.4937 13.9593 58.0737 14.8692 57.6745 17.0832C58.9468 16.4283 59.9584 16.4211 61.0311 17.1631C60.735 17.7892 60.6975 18.2006 61.0311 18.5125C61.0311 18.5125 65.1708 18.6624 65.1708 29.008C65.1708 38.969 64.3978 42.5323 63.2602 43.1022C62.1226 43.672 60.0254 45.6979 60.0254 45.6979C60.0254 45.6979 60.5534 27.6644 55.4592 27.8085C50.3649 27.9526 46.6301 30.5181 34.2845 27.8085C31.5763 27.2134 27.7161 44.1547 29.1491 47.7534Z" fill="#A8A8A8"/>
<path d="M28.7317 54.0952C28.7317 54.0952 30.9254 64.8508 36.4412 68.1893C45.0534 73.4025 50.9676 68.9811 50.9676 68.9811C50.9676 68.9811 57.8392 62.8234 58.966 59.1931C59.9725 55.9503 60.3262 54.0952 60.3262 54.0952C60.3262 54.0952 61.2332 54.0952 61.8377 53.3452C62.4422 52.5952 62.5934 47.7977 63.0473 46.4476C63.5005 45.0982 63.8031 42.849 62.2916 42.9988C60.7801 43.1487 60.0243 45.6976 60.0243 45.6976C60.0243 45.6976 61.3968 41.1624 60.4897 38.4636C59.5827 35.7648 60.1756 30.1035 56.5474 27.8543C52.9193 25.605 48.2998 26.355 46.0743 27.1043C43.8488 27.8543 39.163 27.404 36.2906 26.3543C33.4182 25.3046 30.2086 30.0769 29.7554 32.3261C29.3023 34.5753 28.5804 43.8972 28.7324 45.6962C28.8837 47.4952 28.8837 47.4951 28.8837 47.4951C28.8837 47.4951 27.8253 42.697 26.9183 42.3973C26.0112 42.0975 24.3485 42.0976 24.651 45.6962C24.9536 49.2948 25.3203 46.5089 26.6164 53.1932C27.3715 57.0937 28.7317 54.0952 28.7317 54.0952Z" fill="#F4F4F4"/>
<path d="M29.7336 71.509C29.7336 71.509 28.4152 79.2617 27.5715 79.48C26.7279 79.699 36.9367 84.7256 40.6895 85.209C40.6895 85.209 42.9445 81.3063 45.4711 80.1262C45.4711 80.1262 30.2538 74.9628 29.7336 71.509Z" fill="white"/>
<path d="M61.0781 71.4305C61.0781 71.4305 62.4635 79.1681 63.3007 79.3777C64.1378 79.5874 54.0962 84.7235 50.3903 85.248C50.3903 85.248 48.1187 81.3698 45.6086 80.2163C45.6086 80.2163 60.5997 74.8894 61.0781 71.4305Z" fill="white"/>
</g>
<defs>
<linearGradient id="paint0_linear" x1="29.7499" y1="75.3596" x2="61.0502" y2="75.3596" gradientUnits="userSpaceOnUse">
<stop stop-color="#A1A1A1"/>
<stop offset="0.0578" stop-color="#B2B2B2"/>
<stop offset="0.1872" stop-color="#D4D4D4"/>
<stop offset="0.3108" stop-color="#ECECEC"/>
<stop offset="0.4253" stop-color="#FAFAFA"/>
<stop offset="0.5215" stop-color="white"/>
<stop offset="0.6449" stop-color="#FCFCFB"/>
<stop offset="0.7549" stop-color="#F1F1F1"/>
<stop offset="0.8598" stop-color="#DFDFDE"/>
<stop offset="0.9609" stop-color="#C6C6C5"/>
<stop offset="1" stop-color="#BABAB9"/>
</linearGradient>
<linearGradient id="paint1_linear" x1="45.8325" y1="91.882" x2="45.8325" y2="59.3759" gradientUnits="userSpaceOnUse">
<stop stop-color="white"/>
<stop offset="0.243" stop-color="#FBFBFB"/>
<stop offset="0.4799" stop-color="#F0F0EF"/>
<stop offset="0.7145" stop-color="#DCDCDC"/>
<stop offset="0.9463" stop-color="#C1C1C0"/>
<stop offset="1" stop-color="#BABAB9"/>
</linearGradient>
</defs>
</svg>
