<svg width="26" height="25" viewBox="0 0 26 25" fill="none" xmlns="http://www.w3.org/2000/svg">
    <path d="M12.0825 2.6574C12.4307 1.85452 13.5693 1.85452 13.9175 2.6574L16.2954 8.14107C16.4403 8.47522 16.7554 8.70417 17.118 8.73872L23.068 9.3057C23.9392 9.38871 24.2911 10.4716 23.6351 11.0508L19.1546 15.0069C18.8816 15.2479 18.7612 15.6184 18.8404 15.9739L20.1398 21.808C20.3301 22.6621 19.409 23.3314 18.6554 22.8865L13.5084 19.8478C13.1948 19.6627 12.8052 19.6627 12.4916 19.8478L7.34463 22.8865C6.59104 23.3314 5.6699 22.6621 5.86015 21.808L7.1596 15.9739C7.23878 15.6184 7.11842 15.2479 6.8454 15.0069L2.36494 11.0508C1.70894 10.4716 2.06079 9.38871 2.93196 9.3057L8.88204 8.73872C9.24462 8.70417 9.55974 8.47522 9.70464 8.14107L12.0825 2.6574Z" fill="#FFD365" stroke="#FFD365" stroke-width="3"/>
</svg>
