<svg width="17" height="17" viewBox="0 0 17 17" fill="none" xmlns="http://www.w3.org/2000/svg">
<path fill-rule="evenodd" clip-rule="evenodd" d="M7.69999 1.20001C6.49712 1.20001 5.50992 2.12341 5.40857 3.30001H3.49999H2.79999C2.30294 3.30001 1.89999 3.70296 1.89999 4.20001C1.89999 4.69707 2.30294 5.10001 2.79999 5.10001H3.49999H3.50884L4.06941 13.4341L4.06954 13.4361C4.14132 14.5683 5.08055 15.45 6.21523 15.45H10.5848C11.7195 15.45 12.6587 14.5682 12.7305 13.436L12.7306 13.4341L13.2912 5.10001H13.3H14C14.497 5.10001 14.9 4.69707 14.9 4.20001C14.9 3.70296 14.497 3.30001 14 3.30001H13.3H11.3914C11.2901 2.12341 10.3029 1.20001 9.09999 1.20001H7.69999ZM9.55839 3.30001H7.2416C7.31875 3.12342 7.49496 3.00001 7.69999 3.00001H9.09999C9.30503 3.00001 9.48123 3.12342 9.55839 3.30001ZM7.68917 6.96147C7.66789 6.46487 7.24806 6.07955 6.75146 6.10084C6.25486 6.12212 5.86954 6.54195 5.89082 7.03855L6.10082 11.9385C6.1221 12.4351 6.54193 12.8205 7.03853 12.7992C7.53513 12.7779 7.92045 12.3581 7.89917 11.8615L7.68917 6.96147ZM10.9092 7.03855C10.9305 6.54195 10.5451 6.12212 10.0485 6.10084C9.55193 6.07955 9.1321 6.46487 9.11082 6.96147L8.90082 11.8615C8.87954 12.3581 9.26486 12.7779 9.76146 12.7992C10.2581 12.8205 10.6779 12.4351 10.6992 11.9385L10.9092 7.03855Z" fill="black"/>
</svg>
