<svg width="16" height="16" viewBox="0 0 16 16" fill="none" xmlns="http://www.w3.org/2000/svg">
<path fill-rule="evenodd" clip-rule="evenodd" d="M14.75 5.25C14.2415 5.75853 13.9872 6.01279 13.6814 6.0692C13.5615 6.09132 13.4385 6.09132 13.3186 6.0692C13.0128 6.01279 12.7585 5.75853 12.25 5.25L10.75 3.75C10.2415 3.24147 9.98721 2.98721 9.93081 2.68139C9.90869 2.56147 9.90869 2.43853 9.93081 2.31862C9.98721 2.01279 10.2415 1.75853 10.75 1.25V1.25C11.2585 0.741474 11.5128 0.487211 11.8186 0.430803C11.9385 0.408686 12.0615 0.408686 12.1814 0.430803C12.4872 0.487211 12.7415 0.741474 13.25 1.25L14.75 2.75C15.2585 3.25853 15.5128 3.51279 15.5692 3.81862C15.5913 3.93853 15.5913 4.06147 15.5692 4.18139C15.5128 4.48721 15.2585 4.74147 14.75 5.25V5.25ZM2 16C1.05719 16 0.585786 16 0.292893 15.7071C0 15.4142 0 14.9428 0 14V12.8284C0 12.4197 0 12.2153 0.0761205 12.0315C0.152241 11.8478 0.296756 11.7032 0.585787 11.4142L7.08579 4.91421C7.75245 4.24755 8.08579 3.91421 8.5 3.91421C8.91421 3.91421 9.24755 4.24755 9.91421 4.91421L11.0858 6.08579C11.7525 6.75245 12.0858 7.08579 12.0858 7.5C12.0858 7.91421 11.7525 8.24755 11.0858 8.91421L4.58579 15.4142C4.29676 15.7032 4.15224 15.8478 3.96847 15.9239C3.7847 16 3.58032 16 3.17157 16H2Z" fill="white"/>
</svg>
