<svg width="137" height="20" viewBox="0 0 137 20" fill="none" xmlns="http://www.w3.org/2000/svg">
<line x1="0.5" y1="7.5" x2="0.5" y2="12.5" stroke="#007BEC" stroke-linecap="round"/>
<line x1="4.5" y1="5.5" x2="4.5" y2="14.5" stroke="#007BEC" stroke-linecap="round"/>
<line x1="8.5" y1="3.5" x2="8.5" y2="16.5" stroke="#007BEC" stroke-linecap="round"/>
<line x1="12.5" y1="7.5" x2="12.5" y2="12.5" stroke="#007BEC" stroke-linecap="round"/>
<line x1="16.5" y1="7.5" x2="16.5" y2="12.5" stroke="#007BEC" stroke-linecap="round"/>
<line x1="20.5" y1="5.5" x2="20.5" y2="14.5" stroke="#007BEC" stroke-linecap="round"/>
<line x1="24.5" y1="3.5" x2="24.5" y2="16.5" stroke="#007BEC" stroke-linecap="round"/>
<line x1="28.5" y1="0.5" x2="28.5" y2="19.5" stroke="#007BEC" stroke-linecap="round"/>
<line x1="32.5" y1="0.5" x2="32.5" y2="19.5" stroke="#007BEC" stroke-linecap="round"/>
<line x1="36.5" y1="5.5" x2="36.5" y2="14.5" stroke="#007BEC" stroke-linecap="round"/>
<line opacity="0.5" x1="100.5" y1="7.5" x2="100.5" y2="12.5" stroke="#007BEC" stroke-linecap="round"/>
<line opacity="0.5" x1="104.5" y1="5.5" x2="104.5" y2="14.5" stroke="#007BEC" stroke-linecap="round"/>
<line opacity="0.5" x1="108.5" y1="3.5" x2="108.5" y2="16.5" stroke="#007BEC" stroke-linecap="round"/>
<line opacity="0.5" x1="112.5" y1="7.5" x2="112.5" y2="12.5" stroke="#007BEC" stroke-linecap="round"/>
<line opacity="0.5" x1="116.5" y1="7.5" x2="116.5" y2="12.5" stroke="#007BEC" stroke-linecap="round"/>
<line opacity="0.5" x1="120.5" y1="5.5" x2="120.5" y2="14.5" stroke="#007BEC" stroke-linecap="round"/>
<line opacity="0.5" x1="124.5" y1="3.5" x2="124.5" y2="16.5" stroke="#007BEC" stroke-linecap="round"/>
<line opacity="0.5" x1="128.5" y1="0.5" x2="128.5" y2="19.5" stroke="#007BEC" stroke-linecap="round"/>
<line opacity="0.5" x1="132.5" y1="0.5" x2="132.5" y2="19.5" stroke="#007BEC" stroke-linecap="round"/>
<line opacity="0.5" x1="136.5" y1="5.5" x2="136.5" y2="14.5" stroke="#007BEC" stroke-linecap="round"/>
<line x1="40.5" y1="3.5" x2="40.5" y2="16.5" stroke="#007BEC" stroke-linecap="round"/>
<line x1="44.5" y1="0.5" x2="44.5" y2="19.5" stroke="#007BEC" stroke-linecap="round"/>
<line x1="48.5" y1="7.5" x2="48.5" y2="12.5" stroke="#007BEC" stroke-linecap="round"/>
<line x1="52.5" y1="6.5" x2="52.5" y2="13.5" stroke="#007BEC" stroke-linecap="round"/>
<line x1="56.5" y1="5.5" x2="56.5" y2="14.5" stroke="#007BEC" stroke-linecap="round"/>
<line x1="60.5" y1="0.5" x2="60.5" y2="19.5" stroke="#007BEC" stroke-linecap="round"/>
<line x1="64.5" y1="3.5" x2="64.5" y2="16.5" stroke="#007BEC" stroke-linecap="round"/>
<line x1="68.5" y1="6.5" x2="68.5" y2="13.5" stroke="#007BEC" stroke-linecap="round"/>
<line opacity="0.5" x1="72.5" y1="7.5" x2="72.5" y2="12.5" stroke="#007BEC" stroke-linecap="round"/>
<line opacity="0.5" x1="76.5" y1="6.5" x2="76.5" y2="13.5" stroke="#007BEC" stroke-linecap="round"/>
<line opacity="0.5" x1="80.5" y1="7.5" x2="80.5" y2="12.5" stroke="#007BEC" stroke-linecap="round"/>
<line opacity="0.5" x1="84.5" y1="6.5" x2="84.5" y2="13.5" stroke="#007BEC" stroke-linecap="round"/>
<line opacity="0.5" x1="88.5" y1="7.5" x2="88.5" y2="12.5" stroke="#007BEC" stroke-linecap="round"/>
<line opacity="0.5" x1="92.5" y1="6.5" x2="92.5" y2="13.5" stroke="#007BEC" stroke-linecap="round"/>
<line opacity="0.5" x1="96.5" y1="7.5" x2="96.5" y2="12.5" stroke="#007BEC" stroke-linecap="round"/>
</svg>
