<svg width="16" height="22" viewBox="0 0 16 22" fill="none" xmlns="http://www.w3.org/2000/svg">
<path fill-rule="evenodd" clip-rule="evenodd" d="M8.0001 0C5.79096 0 4.0001 1.79086 4.0001 4V11C4.0001 13.2091 5.79096 15 8.0001 15C10.2092 15 12.0001 13.2091 12.0001 11V4C12.0001 1.79086 10.2092 0 8.0001 0ZM2.4001 10C2.4001 9.50294 1.99715 9.1 1.5001 9.1C1.00304 9.1 0.600098 9.50294 0.600098 10V11C0.600098 14.4979 3.02703 17.4289 6.28888 18.2012C6.7466 18.3095 7.1001 18.6996 7.1001 19.1699C7.1001 19.6836 6.68369 20.1 6.17003 20.1H4.0001C3.50304 20.1 3.1001 20.5029 3.1001 21C3.1001 21.4971 3.50304 21.9 4.0001 21.9H8.0001H12.0001C12.4972 21.9 12.9001 21.4971 12.9001 21C12.9001 20.5029 12.4972 20.1 12.0001 20.1H9.83017C9.3165 20.1 8.9001 19.6836 8.9001 19.1699C8.9001 18.6996 9.2536 18.3095 9.71131 18.2012C12.9732 17.4289 15.4001 14.4979 15.4001 11V10C15.4001 9.50294 14.9972 9.1 14.5001 9.1C14.003 9.1 13.6001 9.50294 13.6001 10V11C13.6001 14.0928 11.0929 16.6 8.0001 16.6C4.9073 16.6 2.4001 14.0928 2.4001 11V10Z" fill="#007BEC"/>
</svg>
