<svg width="18" height="20" viewBox="0 0 18 20" fill="none" xmlns="http://www.w3.org/2000/svg">
<path fill-rule="evenodd" clip-rule="evenodd" d="M9.66119 19.7241C11.8954 18.2269 17.5269 13.9398 17.5269 8.76345C17.5269 3.92353 13.6034 0 8.76345 0C3.92353 0 0 3.92353 0 8.76345C0 13.9398 5.63145 18.2269 7.8657 19.7241C8.41457 20.092 9.11233 20.092 9.66119 19.7241ZM8.76345 11.5309C10.2918 11.5309 11.5309 10.2918 11.5309 8.76345C11.5309 7.23505 10.2918 5.99604 8.76345 5.99604C7.23505 5.99604 5.99604 7.23505 5.99604 8.76345C5.99604 10.2918 7.23505 11.5309 8.76345 11.5309Z" fill="white"/>
</svg>
