<svg width="18" height="20" viewBox="0 0 18 20" fill="none" xmlns="http://www.w3.org/2000/svg">
<path fill-rule="evenodd" clip-rule="evenodd" d="M8.0001 0.0999756C6.39847 0.0999756 5.1001 1.39835 5.1001 2.99998V3.09998H2.0001H1.0001C0.503041 3.09998 0.100098 3.50292 0.100098 3.99998C0.100098 4.49703 0.503041 4.89998 1.0001 4.89998H2.0001H2.30894L3.13436 17.1715L3.13448 17.1734C3.226 18.6219 4.42747 19.75 5.879 19.75H12.1212C13.5727 19.75 14.7741 18.6219 14.8657 17.1735L14.8658 17.1715L15.6913 4.89998H16.0001H17.0001C17.4972 4.89998 17.9001 4.49703 17.9001 3.99998C17.9001 3.50292 17.4972 3.09998 17.0001 3.09998H16.0001H12.9001V2.99998C12.9001 1.39835 11.6017 0.0999756 10.0001 0.0999756H8.0001ZM11.1001 3.09998H6.9001V2.99998C6.9001 2.39246 7.39258 1.89998 8.0001 1.89998H10.0001C10.6076 1.89998 11.1001 2.39246 11.1001 2.99998V3.09998ZM7.59927 7.96144C7.57799 7.46484 7.15816 7.07952 6.66156 7.1008C6.16496 7.12208 5.77964 7.54191 5.80092 8.03851L6.10092 15.0385C6.12221 15.5351 6.54203 15.9204 7.03863 15.8991C7.53523 15.8779 7.92056 15.458 7.89927 14.9614L7.59927 7.96144ZM12.1993 8.03851C12.2206 7.54191 11.8352 7.12208 11.3386 7.1008C10.842 7.07952 10.4222 7.46484 10.4009 7.96144L10.1009 14.9614C10.0796 15.458 10.465 15.8779 10.9616 15.8991C11.4582 15.9204 11.878 15.5351 11.8993 15.0385L12.1993 8.03851Z" fill="#EF006D"/>
</svg>
