<svg width="36" height="36" viewBox="0 0 36 36" fill="none" xmlns="http://www.w3.org/2000/svg">
<path fill-rule="evenodd" clip-rule="evenodd" d="M12.6364 18.8636C12.2849 18.5121 11.7151 18.5121 11.3636 18.8636C11.0121 19.2151 11.0121 19.7849 11.3636 20.1364L17.3636 26.1364C17.5324 26.3052 17.7613 26.4 18 26.4C18.2387 26.4 18.4676 26.3052 18.6364 26.1364L24.6364 20.1364C24.9879 19.7849 24.9879 19.2151 24.6364 18.8636C24.2849 18.5121 23.7151 18.5121 23.3636 18.8636L18.9 23.3272V10.5H25C27.7614 10.5 30 12.7386 30 15.5V28C30 30.7614 27.7614 33 25 33H11C8.23858 33 6 30.7614 6 28V15.5C6 12.7386 8.23858 10.5 11 10.5H17.1V23.3272L12.6364 18.8636ZM17.1 10.5V4.50001C17.1 4.00295 17.5029 3.60001 18 3.60001C18.4971 3.60001 18.9 4.00295 18.9 4.50001V10.5H17.1Z" fill="white"/>
</svg>
