<svg width="398" height="20" viewBox="0 0 398 20" fill="none" xmlns="http://www.w3.org/2000/svg">
<line x1="1.46777" y1="7.5" x2="1.46777" y2="12.5" stroke="black" stroke-linecap="round"/>
<line x1="5.39746" y1="5.5" x2="5.39746" y2="14.5" stroke="black" stroke-linecap="round"/>
<line x1="9.32812" y1="3.5" x2="9.32812" y2="16.5" stroke="black" stroke-linecap="round"/>
<line x1="13.2578" y1="7.5" x2="13.2578" y2="12.5" stroke="black" stroke-linecap="round"/>
<line x1="17.1875" y1="7.5" x2="17.1875" y2="12.5" stroke="black" stroke-linecap="round"/>
<line x1="21.1182" y1="5.5" x2="21.1182" y2="14.5" stroke="black" stroke-linecap="round"/>
<line x1="25.0479" y1="3.5" x2="25.0479" y2="16.5" stroke="black" stroke-linecap="round"/>
<line x1="28.9775" y1="0.5" x2="28.9775" y2="19.5" stroke="black" stroke-linecap="round"/>
<line x1="32.9082" y1="0.5" x2="32.9082" y2="19.5" stroke="black" stroke-linecap="round"/>
<line x1="36.8379" y1="5.5" x2="36.8379" y2="14.5" stroke="black" stroke-linecap="round"/>
<line x1="99.7187" y1="7.5" x2="99.7188" y2="12.5" stroke="black" stroke-linecap="round"/>
<line x1="166.529" y1="7.5" x2="166.529" y2="12.5" stroke="black" stroke-linecap="round"/>
<line x1="295.87" y1="7.5" x2="295.87" y2="12.5" stroke="black" stroke-linecap="round"/>
<line x1="338.87" y1="7.5" x2="338.87" y2="12.5" stroke="black" stroke-linecap="round"/>
<line x1="381.87" y1="7.5" x2="381.87" y2="12.5" stroke="black" stroke-linecap="round"/>
<line x1="233.34" y1="7.5" x2="233.34" y2="12.5" stroke="black" stroke-linecap="round"/>
<line x1="103.648" y1="5.5" x2="103.648" y2="14.5" stroke="black" stroke-linecap="round"/>
<line x1="170.459" y1="5.5" x2="170.459" y2="14.5" stroke="black" stroke-linecap="round"/>
<line x1="299.801" y1="5.5" x2="299.801" y2="14.5" stroke="black" stroke-linecap="round"/>
<line x1="342.801" y1="5.5" x2="342.801" y2="14.5" stroke="black" stroke-linecap="round"/>
<line x1="385.801" y1="5.5" x2="385.801" y2="14.5" stroke="black" stroke-linecap="round"/>
<line x1="237.27" y1="5.5" x2="237.27" y2="14.5" stroke="black" stroke-linecap="round"/>
<line x1="107.578" y1="3.5" x2="107.578" y2="16.5" stroke="black" stroke-linecap="round"/>
<line x1="174.389" y1="3.5" x2="174.389" y2="16.5" stroke="black" stroke-linecap="round"/>
<line x1="241.199" y1="3.5" x2="241.199" y2="16.5" stroke="black" stroke-linecap="round"/>
<line x1="111.509" y1="7.5" x2="111.509" y2="12.5" stroke="black" stroke-linecap="round"/>
<line x1="178.319" y1="7.5" x2="178.319" y2="12.5" stroke="black" stroke-linecap="round"/>
<line x1="245.13" y1="7.5" x2="245.13" y2="12.5" stroke="black" stroke-linecap="round"/>
<line x1="115.438" y1="7.5" x2="115.438" y2="12.5" stroke="black" stroke-linecap="round"/>
<line x1="182.249" y1="7.5" x2="182.249" y2="12.5" stroke="black" stroke-linecap="round"/>
<line x1="249.06" y1="7.5" x2="249.06" y2="12.5" stroke="black" stroke-linecap="round"/>
<line x1="119.368" y1="5.5" x2="119.368" y2="14.5" stroke="black" stroke-linecap="round"/>
<line x1="186.179" y1="5.5" x2="186.179" y2="14.5" stroke="black" stroke-linecap="round"/>
<line x1="252.989" y1="5.5" x2="252.989" y2="14.5" stroke="black" stroke-linecap="round"/>
<line x1="123.299" y1="3.5" x2="123.299" y2="16.5" stroke="black" stroke-linecap="round"/>
<line x1="190.109" y1="3.5" x2="190.109" y2="16.5" stroke="black" stroke-linecap="round"/>
<line x1="256.92" y1="3.5" x2="256.92" y2="16.5" stroke="black" stroke-linecap="round"/>
<line x1="127.229" y1="0.5" x2="127.229" y2="19.5" stroke="black" stroke-linecap="round"/>
<line x1="194.039" y1="0.5" x2="194.039" y2="19.5" stroke="black" stroke-linecap="round"/>
<line x1="131.158" y1="0.5" x2="131.158" y2="19.5" stroke="black" stroke-linecap="round"/>
<line x1="260.5" y1="0.5" x2="260.5" y2="19.5" stroke="black" stroke-linecap="round"/>
<line x1="303.5" y1="0.5" x2="303.5" y2="19.5" stroke="black" stroke-linecap="round"/>
<line x1="346.5" y1="0.5" x2="346.5" y2="19.5" stroke="black" stroke-linecap="round"/>
<line x1="389.5" y1="0.5" x2="389.5" y2="19.5" stroke="black" stroke-linecap="round"/>
<line x1="197.969" y1="0.5" x2="197.969" y2="19.5" stroke="black" stroke-linecap="round"/>
<line x1="135.089" y1="5.5" x2="135.089" y2="14.5" stroke="black" stroke-linecap="round"/>
<line x1="264.43" y1="5.5" x2="264.43" y2="14.5" stroke="black" stroke-linecap="round"/>
<line x1="307.43" y1="5.5" x2="307.43" y2="14.5" stroke="black" stroke-linecap="round"/>
<line x1="350.43" y1="5.5" x2="350.43" y2="14.5" stroke="black" stroke-linecap="round"/>
<line x1="393.43" y1="5.5" x2="393.43" y2="14.5" stroke="black" stroke-linecap="round"/>
<line x1="201.899" y1="5.5" x2="201.899" y2="14.5" stroke="black" stroke-linecap="round"/>
<line x1="40.7676" y1="3.5" x2="40.7676" y2="16.5" stroke="black" stroke-linecap="round"/>
<line x1="44.6982" y1="0.5" x2="44.6982" y2="19.5" stroke="black" stroke-linecap="round"/>
<line x1="48.6279" y1="7.5" x2="48.6279" y2="12.5" stroke="black" stroke-linecap="round"/>
<line x1="52.5576" y1="6.5" x2="52.5576" y2="13.5" stroke="black" stroke-linecap="round"/>
<line x1="56.4883" y1="5.5" x2="56.4883" y2="14.5" stroke="black" stroke-linecap="round"/>
<line x1="60.418" y1="0.5" x2="60.418" y2="19.5" stroke="black" stroke-linecap="round"/>
<line x1="64.3486" y1="3.5" x2="64.3486" y2="16.5" stroke="black" stroke-linecap="round"/>
<line x1="68.2783" y1="6.5" x2="68.2783" y2="13.5" stroke="black" stroke-linecap="round"/>
<line x1="72.208" y1="7.5" x2="72.208" y2="12.5" stroke="black" stroke-linecap="round"/>
<line x1="139.019" y1="7.5" x2="139.019" y2="12.5" stroke="black" stroke-linecap="round"/>
<line x1="268.359" y1="7.5" x2="268.359" y2="12.5" stroke="black" stroke-linecap="round"/>
<line x1="311.359" y1="7.5" x2="311.359" y2="12.5" stroke="black" stroke-linecap="round"/>
<line x1="354.359" y1="7.5" x2="354.359" y2="12.5" stroke="black" stroke-linecap="round"/>
<line x1="397.359" y1="7.5" x2="397.359" y2="12.5" stroke="black" stroke-linecap="round"/>
<line x1="205.829" y1="7.5" x2="205.829" y2="12.5" stroke="black" stroke-linecap="round"/>
<line x1="76.1387" y1="6.5" x2="76.1387" y2="13.5" stroke="black" stroke-linecap="round"/>
<line x1="142.949" y1="6.5" x2="142.949" y2="13.5" stroke="black" stroke-linecap="round"/>
<line x1="272.29" y1="6.5" x2="272.29" y2="13.5" stroke="black" stroke-linecap="round"/>
<line x1="315.29" y1="6.5" x2="315.29" y2="13.5" stroke="black" stroke-linecap="round"/>
<line x1="358.29" y1="6.5" x2="358.29" y2="13.5" stroke="black" stroke-linecap="round"/>
<line x1="209.759" y1="6.5" x2="209.759" y2="13.5" stroke="black" stroke-linecap="round"/>
<line x1="80.0684" y1="7.5" x2="80.0684" y2="12.5" stroke="black" stroke-linecap="round"/>
<line x1="146.879" y1="7.5" x2="146.879" y2="12.5" stroke="black" stroke-linecap="round"/>
<line x1="276.221" y1="7.5" x2="276.221" y2="12.5" stroke="black" stroke-linecap="round"/>
<line x1="319.221" y1="7.5" x2="319.221" y2="12.5" stroke="black" stroke-linecap="round"/>
<line x1="362.221" y1="7.5" x2="362.221" y2="12.5" stroke="black" stroke-linecap="round"/>
<line x1="213.689" y1="7.5" x2="213.689" y2="12.5" stroke="black" stroke-linecap="round"/>
<line x1="83.998" y1="6.5" x2="83.998" y2="13.5" stroke="black" stroke-linecap="round"/>
<line x1="150.809" y1="6.5" x2="150.809" y2="13.5" stroke="black" stroke-linecap="round"/>
<line x1="280.15" y1="6.5" x2="280.15" y2="13.5" stroke="black" stroke-linecap="round"/>
<line x1="323.15" y1="6.5" x2="323.15" y2="13.5" stroke="black" stroke-linecap="round"/>
<line x1="366.15" y1="6.5" x2="366.15" y2="13.5" stroke="black" stroke-linecap="round"/>
<line x1="217.619" y1="6.5" x2="217.619" y2="13.5" stroke="black" stroke-linecap="round"/>
<line x1="87.9287" y1="7.5" x2="87.9287" y2="12.5" stroke="black" stroke-linecap="round"/>
<line x1="154.738" y1="7.5" x2="154.738" y2="12.5" stroke="black" stroke-linecap="round"/>
<line x1="284.08" y1="7.5" x2="284.08" y2="12.5" stroke="black" stroke-linecap="round"/>
<line x1="327.08" y1="7.5" x2="327.08" y2="12.5" stroke="black" stroke-linecap="round"/>
<line x1="370.08" y1="7.5" x2="370.08" y2="12.5" stroke="black" stroke-linecap="round"/>
<line x1="221.549" y1="7.5" x2="221.549" y2="12.5" stroke="black" stroke-linecap="round"/>
<line x1="91.8584" y1="6.5" x2="91.8584" y2="13.5" stroke="black" stroke-linecap="round"/>
<line x1="158.669" y1="6.5" x2="158.669" y2="13.5" stroke="black" stroke-linecap="round"/>
<line x1="288.01" y1="6.5" x2="288.01" y2="13.5" stroke="black" stroke-linecap="round"/>
<line x1="331.01" y1="6.5" x2="331.01" y2="13.5" stroke="black" stroke-linecap="round"/>
<line x1="374.01" y1="6.5" x2="374.01" y2="13.5" stroke="black" stroke-linecap="round"/>
<line x1="225.479" y1="6.5" x2="225.479" y2="13.5" stroke="black" stroke-linecap="round"/>
<line x1="95.7881" y1="7.5" x2="95.7881" y2="12.5" stroke="black" stroke-linecap="round"/>
<line x1="162.599" y1="7.5" x2="162.599" y2="12.5" stroke="black" stroke-linecap="round"/>
<line x1="291.939" y1="7.5" x2="291.939" y2="12.5" stroke="black" stroke-linecap="round"/>
<line x1="334.939" y1="7.5" x2="334.939" y2="12.5" stroke="black" stroke-linecap="round"/>
<line x1="377.939" y1="7.5" x2="377.939" y2="12.5" stroke="black" stroke-linecap="round"/>
<line x1="229.409" y1="7.5" x2="229.409" y2="12.5" stroke="black" stroke-linecap="round"/>
</svg>
